# xmcd CD database file
#
# Track frame offsets:
#	150
#	9033
#	19919
#	32677
#	44742
#	52010
#	63955
#	78768
#	87393
#	103575
#	118089
#	131099
#	139594
#	161969
#	170222
#	184703
#	190423
#	205511
#	210994
#	225698
#	239137
#	254101
#	268044
#	285310
#	295944
#
# Disc length: 4237 seconds
#
# Revision: 0
# Processed by: cddbd v1.5.2PL0 Copyright (c) Steve Scherf et al.
# Submitted via: CDex 1.77
#
DISCID=73108b19
DTITLE=Prague Klezmerim - A nacht in gan Eydn
DYEAR=2002
DGENRE=Jazz
TTITLE0=Shibolet ba-sade
TTITLE1=Bei mir bist du schein
TTITLE2=Odesa bulgarish
TTITLE3=Araber tantz
TTITLE4=Ele chamda libi
TTITLE5=Az de rebe Elimelech
TTITLE6=Beim rebn in Palestina
TTITLE7=Schein wie die Iewone
TTITLE8=Sirba
TTITLE9=Dance of the souls
TTITLE10=Nigun II
TTITLE11=Manginat ha d'ror
TTITLE12=Der jid in Jerushalaim
TTITLE13=Simen tov
TTITLE14=A nacht in gan Eydn
TTITLE15=Maple Leaf Rap
TTITLE16=D'ror jikra
TTITLE17=Simchat he-ame
TTITLE18=Galizianer tantz
TTITLE19=Lach Jerushalaim
TTITLE20=Gam-li-el
TTITLE21=Russian sher
TTITLE22=Grine kuzine
TTITLE23=Debka kafrit
TTITLE24=Heyser bulgar
EXTD=YEAR: 2002
EXTT0=
EXTT1=
EXTT2=
EXTT3=
EXTT4=
EXTT5=
EXTT6=
EXTT7=
EXTT8=
EXTT9=
EXTT10=
EXTT11=
EXTT12=
EXTT13=
EXTT14=
EXTT15=
EXTT16=
EXTT17=
EXTT18=
EXTT19=
EXTT20=
EXTT21=
EXTT22=
EXTT23=
EXTT24=
PLAYORDER=
